<?xml version="1.0" encoding="utf-8"?>
<!-- Generator: Adobe Illustrator 19.0.0, SVG Export Plug-In . SVG Version: 6.00 Build 0)  -->
<svg version="1.1" id="Calque_1" xmlns="http://www.w3.org/2000/svg" xmlns:xlink="http://www.w3.org/1999/xlink" x="0px" y="0px"
	 viewBox="0 0 1024 188.7" style="enable-background:new 0 0 1024 188.7;" xml:space="preserve">
<style type="text/css">
	.st0{fill:#007EFF;}
	.st1{fill:#333333;}
</style>
<circle id="XMLID_286_" class="st0" cx="989.1" cy="121.7" r="15.5"/>
<path id="XMLID_347_" class="st0" d="M20.5,121.7c3.3,2.8,7.4,6.1,11.8,7.9c4.4,1.8,9.7,2.7,15.7,2.7c3.3,0,6.4-0.3,9.4-1
	c3-0.6,5.6-1.6,7.8-2.8c2.2-1.2,4-2.8,5.3-4.7c1.3-1.9,2-4.1,2-6.7c0-3-0.6-5.4-1.8-7.3c-1.2-1.9-2.9-3.5-5.2-4.7
	c-2.3-1.2-5.2-2.3-8.7-3.2c-3.5-0.9-7.5-1.9-12-2.9c-3.8-0.8-7.2-1.8-10.4-2.9c-3.1-1.1-5.8-2.5-8.1-4.2c-2.2-1.7-4-3.8-5.3-6.3
	c-1.3-2.5-2-5.7-2-9.5c0-3.7,0.8-6.9,2.5-9.7c1.7-2.8,3.9-5.1,6.7-7c2.8-1.9,6-3.3,9.6-4.2c3.6-0.9,7.4-1.3,11.3-1.3
	c6.4,0,12,1.2,16.9,3.5c4.9,2.4,8.9,5.4,12,9c0,0-2.5,7.4-5.5,5c-3-2.4-6.1-5.6-9.8-7.4c-3.7-1.9-8.2-2.8-13.4-2.8
	c-2.6,0-5.2,0.2-7.8,0.6c-2.6,0.4-5,1.2-7.1,2.3c-2.1,1.1-3.8,2.7-5.1,4.6c-1.3,2-2,4.5-2,7.7c0,2.6,0.7,4.8,2.2,6.6
	c1.5,1.8,3.4,3.3,5.8,4.4c2.4,1.2,5.1,2.2,8.2,2.9c3.1,0.8,6.1,1.5,9.2,2.2c3.3,0.7,6.7,1.6,10,2.7c3.4,1.1,6.4,2.5,9.2,4.2
	c2.8,1.7,5,3.9,6.7,6.6c1.7,2.7,2.6,6,2.6,10c0,4.1-0.9,7.7-2.8,10.6c-1.9,3-4.4,5.4-7.4,7.4c-3.1,2-6.6,3.4-10.5,4.3
	c-3.9,0.9-7.8,1.4-11.7,1.4c-7.7,0-14.2-1.1-19.6-3.4c-5.4-2.2-10-5.3-13.7-9C15.4,127.3,17.2,118.9,20.5,121.7z"/>
<path id="XMLID_345_" class="st0" d="M99.8,73.1c0.9-1.8,2.2-3.8,3.9-6c1.7-2.2,3.7-4.3,6.2-6.3s5.4-3.6,8.9-4.9
	c3.4-1.3,7.4-2,11.9-2c7.9,0,14,1.7,18.1,5.1c4.1,3.4,7,8.1,8.7,14.3v-0.2c0.8-1.7,2.2-3.6,4-5.8c1.8-2.2,4.1-4.3,6.8-6.3
	c2.7-2,5.9-3.7,9.4-5.1c3.5-1.4,7.5-2,11.9-2c5.4,0,10,0.8,13.7,2.5c3.7,1.7,6.7,4.1,8.9,7.2c2.2,3.1,3.8,6.9,4.7,11.4
	c0.9,4.4,1.4,9.4,1.4,14.8v47.9h-8V92.4c0-6-0.5-11.1-1.4-15.1c-0.9-4-2.4-7.2-4.3-9.6c-1.9-2.4-4.2-4-6.8-5
	c-2.7-0.9-5.8-1.4-9.3-1.4c-4,0-7.8,0.8-11.4,2.5c-3.5,1.7-6.7,3.8-9.3,6.6c-2.7,2.7-4.8,5.8-6.3,9.3c-1.5,3.5-2.3,7.1-2.3,10.9v47
	h-8V92.4c0-6-0.5-11.1-1.4-15.1c-0.9-4-2.3-7.2-4.2-9.6c-1.8-2.4-4.1-4-6.7-5c-2.7-0.9-5.8-1.4-9.3-1.4c-4.9,0-9.1,1.1-12.8,3.2
	c-3.7,2.1-6.7,4.8-9.2,8.2c-2.5,3.3-4.3,7-5.6,11c-1.2,4-1.9,8-1.9,11.9"/>
<path id="XMLID_330_" class="st0" d="M288.2,137.7c0-1.7,0-11.4,0-13.7c-2.1,3.1-4.5,5.6-7,7.7c-2.5,2.1-5.2,3.7-8,4.9
	c-2.8,1.2-5.5,2-8.2,2.5c-2.7,0.5-5.1,0.7-7.4,0.7c-3.4,0-6.9-0.4-10.3-1.1c-3.4-0.7-6.5-2-9.2-3.8c-2.7-1.8-4.9-4.3-6.7-7.4
	c-1.7-3.1-2.6-7.1-2.6-12c0-3.9,0.6-7.6,2-11.1c1.3-3.5,3.4-6.5,6.2-9c2.8-2.5,6.5-4.6,11-6c4.5-1.5,9.9-2.2,16.3-2.2
	c5,0,9.4,0.2,13.3,0.5c3.9,0.4,7.2,0.8,9.9,1.2v-4.6c0-4.5-0.5-8.2-1.6-11.2c-1.1-3-2.7-5.3-4.8-7.1c-2.1-1.8-4.7-3-7.8-3.7
	c-3.1-0.7-6.6-1.1-10.6-1.1c-6.7,0-12.1,1-16.1,2.9c-4,2-6.1,3.3-9.1,5.6s-4.3-5.5-4.3-5.5c2.2-2.1,5.9-4.4,10.9-6.7
	c5-2.4,11.1-3.5,18.4-3.5c10.5,0,18.7,2.2,24.4,6.7c5.7,4.5,8.6,11.9,8.6,22.3v37.6c0,2.4,0,15,0,17 M287.8,96
	c-2.5-0.6-5.6-1.1-9.3-1.5c-3.7-0.4-8.5-0.6-14.3-0.6c-6,0-10.8,0.7-14.4,2.2c-3.5,1.5-6.2,3.3-8.1,5.5c-1.8,2.2-3,4.6-3.5,7.1
	c-0.5,2.5-0.8,4.8-0.8,6.8c0,5.9,2,10.2,5.9,12.9c4,2.7,9,4.1,15.2,4.1c4,0,7.8-0.7,11.4-2.1c3.5-1.4,6.7-3.3,9.3-5.7
	c2.7-2.4,4.8-5.1,6.3-8.1c1.5-3,2.3-6.1,2.3-9.1V96z"/>
<path id="XMLID_328_" class="st0" d="M374.8,63.5h-16.3V56h16.3c0,0,0-23.7,0-27s8,0,8,0v27h27v7.4h-27v47.2c0,4.8,0.4,8.7,1.1,11.6
	c0.7,2.9,1.7,5.1,3.1,6.6c1.4,1.5,2.9,2.5,4.7,2.9c1.8,0.5,3.7,0.7,5.9,0.7c3,0,5.5-0.5,7.6-1.6c2.1-1.1,4.3-2.9,6.4-5.5l5,4.8
	c-2.4,3.1-5.1,5.4-8.1,7.1c-3,1.7-6.9,2.5-11.8,2.5c-3.2,0-6.1-0.4-8.9-1.2c-2.7-0.8-5-2.2-6.9-4.3c-1.9-2.1-3.4-4.8-4.4-8.3
	c-1.1-3.5-1.6-8-1.6-13.4V63.5z"/>
<path id="XMLID_304_" class="st1" d="M480.7,129.8c-2.8,3.3-6.4,5.9-10.7,7.6c-4.3,1.8-9.1,2.7-14.5,2.7c-3,0-6.1-0.4-9.3-1.2
	c-3.3-0.8-6.3-2.2-9-4.2c-2.8-2-5.1-4.6-6.9-7.9c-1.8-3.3-2.7-7.4-2.7-12.4c0-4.8,1-9.2,2.9-12.9c2-3.8,4.6-6.9,8.1-9.5
	c3.4-2.5,7.5-4.5,12.1-5.8c4.7-1.3,9.7-2,15.2-2c3,0,5.9,0.1,9,0.2c3,0.1,5,0.3,5.9,0.5v-1.8c0-2.1-0.4-3.9-1.3-5.4
	c-0.9-1.5-2.1-2.7-3.5-3.7c-1.5-1-3.2-1.7-5.1-2.1c-1.9-0.4-3.9-0.6-6-0.6c-5.7,0-10.4,0.7-14.1,2.1c-3.7,1.4-2.4,0.7-9.5,4.8
	c-7.1,4.1-10.5-15.6-10.5-15.6c1.8-1.3,3.8-2.6,6-3.9c2.2-1.3,4.9-2.5,8-3.5c3.1-1.1,6.5-1.9,10.4-2.6c3.8-0.6,8.2-1,13.2-1
	c12.7,0,22,3.4,28,10.2c6,6.8,9,15.9,9,27.4v48.4l-24.6-0.1L480.7,129.8z M480.7,100.9c-0.6-0.1-1.7-0.3-3.4-0.4
	c-1.7-0.2-3.5-0.3-5.7-0.3c-7.1,0-12.1,1-15.1,3c-3,2-4.4,4.8-4.4,8.5c0,6.9,4.1,10.3,12.4,10.3c2,0,4-0.3,5.9-1
	c2-0.6,3.7-1.6,5.1-2.7c1.5-1.2,2.7-2.7,3.6-4.4c0.9-1.8,1.4-3.8,1.4-6.2V100.9z"/>
<path id="XMLID_301_" class="st1" d="M530.4,148.3c3.3,2,6.8,3.6,10.6,4.7c3.7,1.1,7.8,1.7,12.3,1.7c5.8,0,10.3-1.5,13.7-4.6
	c3.3-3.1,5-7.7,5-13.8v-5.9c-5.3,4.6-12.4,6.9-21.3,6.9c-5.9,0-11.2-1-15.9-2.9c-4.7-2-8.6-4.7-11.8-8.2c-3.2-3.5-5.6-7.7-7.4-12.6
	c-1.7-4.8-2.6-10.2-2.6-16c0-6.7,1.2-12.9,3.5-18.4c2.3-5.5,5.6-10.2,9.8-14.2c4.2-4,9.2-7,15.1-9.1c5.9-2.1,12.4-3.2,19.6-3.2
	c6.9,0,13.4,0.6,19.6,1.8c6.2,1.2,11.8,2.7,16.8,4.4V135c0,13.7-3.8,23.9-11.4,30.4c-7.6,6.6-17.9,9.8-31,9.8
	c-7.4,0-14-0.7-19.5-2.1c-5.6-1.4-7.8-2.8-15.3-6.7C512.7,162.5,530.4,148.3,530.4,148.3z M572,75.6c-1.7-0.6-3.3-1-5-1.3
	c-1.7-0.3-3.8-0.4-6.6-0.4c-3.7,0-6.9,0.6-9.6,1.9c-2.7,1.2-5,2.9-6.8,5c-1.8,2.1-3.2,4.5-4.1,7.3c-0.9,2.8-1.3,5.7-1.3,8.8
	c0,6,1.4,10.8,4.3,14.4c2.9,3.5,7.1,5.3,12.7,5.3c5.2,0,9.2-1.3,12.1-3.8c2.8-2.5,4.3-6.5,4.3-12V75.6z"/>
<path id="XMLID_297_" class="st1" d="M687.7,128.6c-0.9,0.6-2.4,1.6-4.3,2.9c-1.9,1.4-4.3,2.7-7.4,4c-3,1.3-6.6,2.5-10.7,3.5
	c-4.1,1-8.9,1.5-14.2,1.5c-7.1,0-13.5-1.1-19.2-3.3c-5.7-2.2-10.5-5.2-14.5-9.1c-4-3.9-7-8.6-9-14.1c-2.1-5.5-3.1-11.6-3.1-18.2
	c0-5.8,1-11.4,2.9-16.8c2-5.4,4.8-10.1,8.4-14.1c3.7-4,8.2-7.2,13.5-9.7c5.3-2.4,11.4-3.6,18.1-3.6s12.7,1.2,17.7,3.5
	c5.1,2.4,9.4,5.6,12.9,9.8c3.5,4.2,6.1,9.2,7.9,15.1c1.8,5.9,2.7,12.3,2.7,19.2v4.3h-59.2c0.1,4.5,2.1,8.4,5.9,11.8
	c3.8,3.4,9.1,5.1,15.9,5.1c6.6,0,12-1,16.1-2.9c4.1-2,1,0,9-5.1C685.3,107.4,687.7,128.6,687.7,128.6z M665.3,87.3
	c0-1.8-0.4-3.6-1.1-5.4c-0.7-1.8-1.8-3.5-3.2-5.1c-1.4-1.5-3.2-2.8-5.3-3.8c-2.1-1-4.7-1.5-7.6-1.5c-3,0-5.6,0.5-7.8,1.5
	c-2.2,1-4.1,2.3-5.6,3.8c-1.5,1.5-2.6,3.2-3.4,5.1c-0.8,1.8-1.2,3.6-1.2,5.4H665.3z"/>
<path id="XMLID_295_" class="st1" d="M697.1,54.5c0,0,24.5-9,24.5,0s0.7,9,0.7,9c2.7-3.3,6.3-6,10.7-8c4.4-2,9.1-3,13.9-3
	c9.6,0,17.2,2.8,22.8,8.5c5.6,5.7,8.4,14.1,8.4,25.2v51.4h-25.5V89.7c0-4.6-1.2-8.3-3.5-11c-2.3-2.7-5.5-4.1-9.7-4.1
	c-2.8,0-5.3,0.5-7.4,1.5c-2.1,1-3.9,2.3-5.3,4c-1.4,1.7-2.5,3.6-3.2,5.8c-0.7,2.2-1.1,4.5-1.1,7v44.7h-25.4V54.5z"/>
<path id="XMLID_292_" class="st1" d="M846.1,129.3c-2.6,3.1-5.9,5.6-10,7.7s-8.7,3.1-13.9,3.1c-5.1,0-9.8-1-14.3-3
	c-4.4-2-8.3-4.9-11.5-8.6c-3.3-3.7-5.8-8.2-7.7-13.5c-1.9-5.3-2.8-11.2-2.8-17.8c0-7.4,1.3-14,4-19.6c2.7-5.6,6.1-10.3,10.3-13.9
	c4.2-3.7,8.9-6.4,14-8.2c5.1-1.8,10.2-2.8,15.2-2.8c4,0,7.2,0.3,9.4,0.8c2.2,0.5,4.6,1.2,6.9,2c0,0,0-27.7,0-36.2s25.4,0,25.4,0
	v118.3H846L846.1,129.3z M845.5,77.3c-1.8-1.1-3.7-1.8-5.8-2.3c-2.1-0.5-4.6-0.7-7.7-0.7c-6.5,0-11.6,2.2-15.2,6.6
	c-3.6,4.4-5.4,10-5.4,16.9c0,6,1.5,11,4.4,14.8c3,3.8,7.4,5.8,13.3,5.8c2.8,0,5.3-0.5,7.4-1.5c2.1-1,3.8-2.3,5.1-4
	c1.4-1.7,2.3-3.6,2.9-5.9c0.6-2.2,0.9-4.5,0.9-6.9V77.3z"/>
<path id="XMLID_163_" class="st0" d="M315.1,96c0-4,0.7-8,2-12c1.4-4,3.3-7.5,5.8-10.6c2.5-3.1,5.4-5.6,8.9-7.4
	c3.4-1.9,7.3-3.3,11.5-3.3c0.9,0,2,0.1,3.1,0.2c0.8,0.1,1.5,0.3,2.2,0.5v-7.8c-1.1-0.2-2.4-0.3-3.7-0.3c-4.4,0-8.2,0.7-11.5,2
	c-3.3,1.3-6.2,2.9-8.7,4.8c-2.5,1.9-4.5,3.9-6.1,6.1c-1.6,2.2-2.9,4.2-3.8,5.9"/>
<path id="XMLID_450_" class="st1" d="M930.4,129.8c-2.8,3.3-6.4,5.9-10.7,7.6c-4.3,1.8-9.1,2.7-14.5,2.7c-3,0-6.1-0.4-9.3-1.2
	c-3.3-0.8-6.3-2.2-9-4.2c-2.8-2-5.1-4.6-6.9-7.9c-1.8-3.3-2.7-7.4-2.7-12.4c0-4.8,1-9.2,2.9-12.9c2-3.8,4.6-6.9,8.1-9.5
	c3.4-2.5,7.5-4.5,12.1-5.8c4.7-1.3,9.7-2,15.2-2c3,0,5.9,0.1,9,0.2c3,0.1,5,0.3,5.9,0.5v-1.8c0-2.1-0.4-3.9-1.3-5.4
	c-0.9-1.5-2.1-2.7-3.5-3.7c-1.5-1-3.2-1.7-5.1-2.1c-1.9-0.4-3.9-0.6-6-0.6c-5.7,0-10.4,0.7-14.1,2.1c-3.7,1.4-2.4,0.7-9.5,4.8
	c-7.1,4.1-10.5-15.6-10.5-15.6c1.8-1.3,3.8-2.6,6-3.9c2.2-1.3,4.9-2.5,8-3.5c3.1-1.1,6.5-1.9,10.4-2.6c3.8-0.6,8.2-1,13.2-1
	c12.7,0,22,3.4,28,10.2c6,6.8,9,15.9,9,27.4v48.4h-24.5L930.4,129.8z M930.4,100.9c-0.6-0.1-1.7-0.3-3.4-0.4
	c-1.7-0.2-3.5-0.3-5.7-0.3c-7.1,0-12.1,1-15.1,3c-3,2-4.4,4.8-4.4,8.5c0,6.9,4.1,10.3,12.4,10.3c2,0,4-0.3,5.9-1
	c2-0.6,3.7-1.6,5.1-2.7c1.5-1.2,2.7-2.7,3.6-4.4c0.9-1.8,1.4-3.8,1.4-6.2V100.9z"/>
<path id="XMLID_505_" class="st0" d="M307.4,137.8V55.2c0,0,8-3.2,8,0c0,3.2,0,82.6,0,82.6"/>
<path id="XMLID_520_" class="st0" d="M92.3,137.8V55.2c0,0,8-3.2,8,0c0,3.2,0,82.6,0,82.6"/>
</svg>
